<svg width="18" height="18" viewBox="0 0 18 18" fill="none" xmlns="http://www.w3.org/2000/svg">
<path d="M8.25024 9C8.25024 9.41421 8.58603 9.75 9.00024 9.75C9.41446 9.75 9.75024 9.41421 9.75024 9C9.75024 8.58579 9.41446 8.25 9.00024 8.25C8.58603 8.25 8.25024 8.58579 8.25024 9Z" stroke="white" stroke-width="2" stroke-linecap="round" stroke-linejoin="round"/>
<path d="M13.5002 9C13.5002 9.41421 13.836 9.75 14.2502 9.75C14.6645 9.75 15.0002 9.41421 15.0002 9C15.0002 8.58579 14.6645 8.25 14.2502 8.25C13.836 8.25 13.5002 8.58579 13.5002 9Z" stroke="white" stroke-width="2" stroke-linecap="round" stroke-linejoin="round"/>
<path d="M3.00024 9C3.00024 9.41421 3.33603 9.75 3.75024 9.75C4.16446 9.75 4.50024 9.41421 4.50024 9C4.50024 8.58579 4.16446 8.25 3.75024 8.25C3.33603 8.25 3.00024 8.58579 3.00024 9Z" stroke="white" stroke-width="2" stroke-linecap="round" stroke-linejoin="round"/>
</svg>
